# xmcd
#
# Track frame offsets: 
#        150
#        16881
#        45774
#        69822
#        86580
#        112812
#        126062
#        153294
#        172520
#        186355
#        204426
#        221486
#        238888
#        252938
#        266453
#        298270
#        316956
#        341267
#
# Disc length: 4792 seconds
#
# Revision: 1
# Processed by: cddbd v1.5.2PL0 Copyright (c) Steve Scherf et al.
# Submitted via: ExactAudioCopy v1.3
#
DISCID=e912b612
DTITLE=Various Artist - Akella Presents - vol.90 - Heavy Blues-Rock  
DTITLE=CD2
DYEAR=2016
DGENRE=Rock
TTITLE0=Gary Hoey - Boxcar Blues
TTITLE1=The Apocalypse Blues Revue - Junkie Hell
TTITLE2=Blindside Blues Band - Smokehouse Row
TTITLE3=Robin Trower - Back Where You Belong
TTITLE4=The Pumps - Forty Days and Forty Nights
TTITLE5=BloYaTop - Transistor Sister
TTITLE6=Davy Knowles and Back Door Slam - Hear Me Lord
TTITLE7=Cold Truth - Gimme Some
TTITLE8=Manu Lanvin - When I'm Down
TTITLE9=Voodooland - Inside Looking Out
TTITLE10=Jeremiah Johnson Band - Room Of Fools
TTITLE11=Dan Patlansky - Backbite
TTITLE12=Stewart Lindsey - Leave This Town
TTITLE13=Zodiac - Rebirth by Fire
TTITLE14=Gary Eisenbraun - A Wind Is Gonna Blow
TTITLE15=Cactus - Black Dawn
TTITLE16=Gary Clark Jr - Bright Lights
TTITLE17=No Sinner - Leadfoot
EXTD=
EXTT0=
EXTT1=
EXTT2=
EXTT3=
EXTT4=
EXTT5=
EXTT6=
EXTT7=
EXTT8=
EXTT9=
EXTT10=
EXTT11=
EXTT12=
EXTT13=
EXTT14=
EXTT15=
EXTT16=
EXTT17=
PLAYORDER=
